<svg width="21" height="18" viewBox="0 0 21 18" fill="none" xmlns="http://www.w3.org/2000/svg">
<path d="M20.2225 16.968V18H0.0625V16.968H5.5585C4.2465 16.216 3.2065 15.184 2.4385 13.872C1.6865 12.56 1.3105 11.096 1.3105 9.47998C1.3105 7.01598 2.1585 4.95998 3.8545 3.31198C5.5505 1.64798 7.6465 0.815979 10.1425 0.815979C12.6385 0.815979 14.7345 1.64798 16.4305 3.31198C18.1265 4.95998 18.9745 7.01598 18.9745 9.47998C18.9745 11.08 18.5905 12.544 17.8225 13.872C17.0705 15.2 16.0385 16.232 14.7265 16.968H20.2225ZM14.3425 5.18398C13.2065 3.99998 11.8065 3.40798 10.1425 3.40798C8.4785 3.40798 7.0705 3.99998 5.9185 5.18398C4.7825 6.36798 4.2145 7.80798 4.2145 9.50398C4.2145 11.184 4.7825 12.616 5.9185 13.8C7.0705 14.984 8.4785 15.576 10.1425 15.576C11.8065 15.576 13.2065 14.984 14.3425 13.8C15.4945 12.616 16.0705 11.184 16.0705 9.50398C16.0705 7.80798 15.4945 6.36798 14.3425 5.18398Z" fill="#457CDC"/>
</svg>
