<svg width="16" height="18" viewBox="0 0 16 18" fill="none" xmlns="http://www.w3.org/2000/svg">
<path d="M15.5263 16.968V18H0.40625V16.968H3.47825C2.71025 16.568 2.00625 16.072 1.36625 15.48L3.14225 13.344C4.83825 14.816 6.59825 15.552 8.42225 15.552C9.33425 15.552 10.0543 15.36 10.5823 14.976C11.1263 14.576 11.3983 14.056 11.3983 13.416C11.3983 12.76 11.1422 12.256 10.6302 11.904C10.1342 11.536 9.27025 11.208 8.03825 10.92C6.80625 10.616 5.87025 10.344 5.23025 10.104C4.59025 9.84798 4.02225 9.51998 3.52625 9.11998C2.53425 8.36798 2.03825 7.21598 2.03825 5.66398C2.03825 4.11198 2.59825 2.91998 3.71825 2.08798C4.85425 1.23998 6.25425 0.815979 7.91825 0.815979C8.99025 0.815979 10.0543 0.991979 11.1103 1.34398C12.1663 1.69598 13.0783 2.19198 13.8463 2.83198L12.3343 4.96798C11.8383 4.51998 11.1663 4.15198 10.3183 3.86398C9.47025 3.57598 8.63025 3.43198 7.79825 3.43198C6.98225 3.43198 6.31025 3.59998 5.78225 3.93598C5.25425 4.27198 4.99025 4.78398 4.99025 5.47198C4.99025 6.14398 5.25425 6.66398 5.78225 7.03198C6.31025 7.38398 7.43025 7.76798 9.14225 8.18398C10.8703 8.59998 12.1663 9.18398 13.0303 9.93598C13.9103 10.688 14.3503 11.744 14.3503 13.104C14.3503 14.752 13.7423 16.04 12.5263 16.968H15.5263Z" fill="#457CDC"/>
</svg>
